# xmcd
# Track frame offsets:
# 150
# 22843
# 34726
# 57422
# 79781
# 92868
# 103686
# 120770
# 133981
# 159507
# 181139
# 200243
# 215209
#
# Disc length: 3240 seconds
# Revision: 0
# Processed by: cddbd v1.5.2PL0 Copyright (c) Steve Scherf et al.
# Submitted via: VisiTrax 2.10.2.252 - For more info visit www.synapsa.com
#
DISCID=b30ca60d
DTITLE=Sue Sergel - Move into the light
DYEAR=2008
DGENRE=Blues
TTITLE0=Move into the light
TTITLE1=She died with her lipstick on
TTITLE2=Bus driver
TTITLE3=The visitor
TTITLE4=Desolation blues
TTITLE5=The bar rom
TTITLE6=Wild woman never get the blues
TTITLE7=I´m walking out on you
TTITLE8=It hurts me too
TTITLE9=Please sen me someone to love
TTITLE10=Blues medly
TTITLE11=Going to Chicago
TTITLE12=Blues för Fadime
EXTD=
EXTT0=
EXTT1=
EXTT2=
EXTT3=
EXTT4=
EXTT5=
EXTT6=
EXTT7=
EXTT8=
EXTT9=
EXTT10=
EXTT11=
EXTT12=
PLAYORDER=
